
SVGOMG
Powered by SVGO v3.0.0


Open SVG
Paste markup

Demo
Contribute



1.76k
<svg preserveAspectRatio="xMidYMid meet" data-bbox="0 0.001 221.146 100.224" viewBox="0 0.001 221.146 100.224" height="100.225" width="221.146" xmlns="http://www.w3.org/2000/svg" data-type="color" role="presentation" aria-hidden="true"><defs><style>#comp-kxg7n1ih svg [data-color="1"] {fill: #1AB33C;}</style></defs>
    <g>
        <defs>
            <clipPath id="558df71e-2590-4dc1-a56f-85bb9c6b1be7_comp-kxg7n1ih">
                <path d="M221.146 0v100.225H0V0h221.146z"></path>
            </clipPath>
        </defs>
        <g clip-path="url(#558df71e-2590-4dc1-a56f-85bb9c6b1be7_comp-kxg7n1ih)">
            <path fill="#1ab33c" d="M49.052 8.773a25.309 25.309 0 0 0-16.935 7.435 25.609 25.609 0 0 0-5.944 9.332 25.305 25.305 0 0 0-1.518 8.664 14.856 14.856 0 0 0 14.851 14.848 9.549 9.549 0 0 0 9.545-9.545z" data-color="1"></path>
            <path fill="#1ab33c" d="M66.021 25.582a13.932 13.932 0 0 0-13.924 13.924v8.621h8.621a13.727 13.727 0 0 0 4.634-.8 14 14 0 0 0 5.21-3.285 13.833 13.833 0 0 0 4.08-9.844 24.406 24.406 0 0 0-1.16-7.461 24.411 24.411 0 0 0-7.461-1.16" data-color="1"></path>
            <path fill="#1ab33c" d="M50.112 100.225a50.112 50.112 0 1 1 50.112-50.112 50.169 50.169 0 0 1-50.112 50.112m0-95.453a45.34 45.34 0 1 0 45.34 45.34 45.392 45.392 0 0 0-45.34-45.34" data-color="1"></path>
            <path fill="#1ab33c" d="M91.608 51.024H8.615a41.492 41.492 0 0 0 40.827 40.589c.228.005.449.011.67.011h.039c.2 0 .4 0 .6-.01a41.492 41.492 0 0 0 40.855-40.59" data-color="1"></path>
            <path d="M138.566 32.869v10.393h-5.136v-9.244c0-1.813-.543-2.87-2.477-2.87-1.874 0-2.9 1-2.9 3.294v8.82h-5.136v-9.244c0-1.813-.543-2.87-2.477-2.87-1.874 0-2.9 1-2.9 3.294v8.82h-5.136V26.646h5.136v1.875a5.792 5.792 0 0 1 4.713-2.266 5.349 5.349 0 0 1 4.983 2.9 6.5 6.5 0 0 1 5.5-2.9c3.566 0 5.832 2.568 5.832 6.614" fill="#000000" data-color="2"></path>
            <path d="M147.131 21.721a2.93 2.93 0 0 1-3.111 2.962 2.95 2.95 0 1 1 0-5.891 2.924 2.924 0 0 1 3.111 2.929m-5.68 4.921h5.136v16.62h-5.136z" fill="#000000" data-color="2"></path>
            <path d="M166.649 26.647v16.374c0 4.925-3.293 8.186-8.368 8.186-4.048 0-8.006-1.994-8.55-6.585h5.286c.394 1.66 1.722 2.022 3.111 2.022 2.236 0 3.385-1.056 3.385-3.444v-2.021a5.864 5.864 0 0 1-4.713 2.174c-4.228 0-7.492-3.564-7.492-8.55 0-5.013 3.323-8.548 7.492-8.548a5.823 5.823 0 0 1 4.713 2.233v-1.841zm-5.136 8.155a3.507 3.507 0 1 0-3.505 3.655 3.47 3.47 0 0 0 3.505-3.655" fill="#000000" data-color="2"></path>
            <path d="M185.722 32.869v10.393h-5.134v-9.244c0-1.813-.544-2.87-2.6-2.87-1.993 0-3.021 1-3.021 3.294v8.821h-5.136V20h5.136v8.521a5.851 5.851 0 0 1 4.8-2.266c3.684 0 5.95 2.568 5.95 6.614" fill="#000000" data-color="2"></path>
            <path d="M202.078 42.204a10.245 10.245 0 0 1-5.2 1.451c-3.2 0-6.344-1.874-6.344-6.828v-5.348H187.7v-4.833h2.839v-3.412l5.136-1.119v4.531h5.589v4.834h-5.589v5.045c0 1.6.815 2.356 2.116 2.356a12.647 12.647 0 0 0 3.412-.814z" fill="#000000" data-color="2"></path>
            <path d="m221.146 26.647-10.6 24.167h-5.47l4.32-9.846-6.253-14.321h5.463l3.5 8.671 3.565-8.671z" fill="#000000" data-color="2"></path>
            <path d="M129.443 56.872v16.371c0 4.925-3.294 8.186-8.368 8.186-4.049 0-8.006-1.994-8.55-6.585h5.286c.394 1.66 1.722 2.022 3.111 2.022 2.236 0 3.385-1.056 3.385-3.444V71.4a5.864 5.864 0 0 1-4.713 2.174c-4.228 0-7.492-3.564-7.492-8.55 0-5.013 3.323-8.548 7.492-8.548a5.823 5.823 0 0 1 4.713 2.233v-1.842zm-5.136 8.157a3.507 3.507 0 1 0-3.505 3.655 3.47 3.47 0 0 0 3.505-3.655" fill="#000000" data-color="2"></path>
            <path d="M143.38 56.572v5.286a8.447 8.447 0 0 0-1.028-.062c-2.415 0-4.742.726-4.742 4.5v7.19h-5.136V56.872h5.136v2.571a5.093 5.093 0 0 1 4.834-2.959 3.879 3.879 0 0 1 .937.091" fill="#000000" data-color="2"></path>
            <path d="M162.237 66.269h-12.114c.241 2.568 1.871 3.655 3.655 3.655a2.878 2.878 0 0 0 2.93-1.874h5.286c-1.146 4.11-4.622 5.832-8.216 5.832a8.7 8.7 0 1 1-.12-17.4c5.5 0 9.091 4.32 8.579 9.788m-11.968-3.113h6.617a3.145 3.145 0 0 0-3.261-2.718 3.306 3.306 0 0 0-3.355 2.718" fill="#000000" data-color="2"></path>
            <path d="M181.762 66.269h-12.114c.241 2.568 1.871 3.655 3.655 3.655a2.878 2.878 0 0 0 2.93-1.874h5.286c-1.146 4.11-4.622 5.832-8.216 5.832a8.7 8.7 0 1 1-.12-17.4c5.5 0 9.091 4.32 8.579 9.788m-11.964-3.111h6.617a3.145 3.145 0 0 0-3.261-2.718 3.306 3.306 0 0 0-3.355 2.718" fill="#000000" data-color="2"></path>
            <path d="M200.201 63.095v10.393h-5.136v-9.244c0-1.813-.543-2.87-2.63-2.87-2.024 0-3.05 1-3.05 3.294v8.821h-5.14V56.872h5.136v1.872a5.843 5.843 0 0 1 4.8-2.266c3.744 0 6.012 2.568 6.012 6.614" fill="#000000" data-color="2"></path>
            <path d="M202.326 68.232h5.2c.212.905.878 1.783 3.264 1.783 1.722 0 2.266-.455 2.266-1.149 0-.664-.514-.817-3.353-1.419-4.743-1.028-6.676-2.3-6.676-5.227 0-3.594 2.868-5.709 7.672-5.709 4.683 0 6.978 2.025 7.492 5.195h-5.2c-.212-.785-.876-1.329-2.507-1.329-1.511 0-2.266.453-2.266 1.178 0 .574.482.635 2.477 1.058 4.954 1.087 7.643 2.084 7.643 5.527 0 3.837-3.353 5.741-7.613 5.741-4.5 0-7.792-2.145-8.4-5.65" fill="#000000" data-color="2"></path>
            <path fill="#1ab33c" d="M49.052 8.773a25.309 25.309 0 0 0-16.935 7.435 25.609 25.609 0 0 0-5.944 9.332 25.305 25.305 0 0 0-1.518 8.664 14.856 14.856 0 0 0 14.851 14.848 9.549 9.549 0 0 0 9.545-9.545z" data-color="1"></path>
            <path fill="#1ab33c" d="M66.021 25.582a13.932 13.932 0 0 0-13.924 13.924v8.621h8.621a13.727 13.727 0 0 0 4.634-.8 14 14 0 0 0 5.21-3.285 13.833 13.833 0 0 0 4.08-9.844 24.406 24.406 0 0 0-1.16-7.461 24.411 24.411 0 0 0-7.461-1.16" data-color="1"></path>
            <path d="M50.112 100.225a50.112 50.112 0 1 1 50.112-50.112 50.169 50.169 0 0 1-50.112 50.112m0-95.453a45.34 45.34 0 1 0 45.34 45.34 45.392 45.392 0 0 0-45.34-45.34" fill="#000000" data-color="2"></path>
            <path d="M91.608 51.024H8.615a41.492 41.492 0 0 0 40.827 40.589c.228.005.449.011.67.011h.039c.2 0 .4 0 .6-.01a41.492 41.492 0 0 0 40.855-40.59" fill="#000000" data-color="2"></path>
        </g>
    </g>
</svg>