<svg width="100" height="100" viewBox="0 0 100 100" fill="none" xmlns="http://www.w3.org/2000/svg">
<g clip-path="url(#clip0_1_28)">
<path d="M49.052 8.77249C42.6712 9.02559 36.6219 11.6814 32.117 16.2075C29.4793 18.8479 27.4507 22.0329 26.173 25.5395C25.1651 28.3167 24.6513 31.249 24.655 34.2035C24.6571 38.1413 26.2226 41.9172 29.0073 44.7013C31.792 47.4855 35.5682 49.0502 39.506 49.0515C42.0372 49.0504 44.4644 48.0445 46.2542 46.2547C48.044 44.4649 49.0499 42.0377 49.051 39.5065L49.052 8.77249Z" fill="#1AB33C"/>
<path d="M66.021 25.5815C62.3288 25.5836 58.7884 27.0513 56.1776 29.6621C53.5668 32.2729 52.0991 35.8133 52.097 39.5055V48.1265H60.718C62.2972 48.1284 63.8648 47.8577 65.352 47.3265C67.311 46.6318 69.0907 45.5097 70.562 44.0415C71.8591 42.7519 72.8876 41.2179 73.5879 39.5281C74.2883 37.8384 74.6465 36.0266 74.642 34.1975C74.6447 31.6654 74.2534 29.1483 73.482 26.7365C71.0702 25.9652 68.5531 25.5739 66.021 25.5765" fill="#1AB33C"/>
<path d="M50.112 100.224C40.2008 100.224 30.5121 97.2855 22.2713 91.7791C14.0304 86.2727 7.60741 78.4463 3.81455 69.2895C0.0216899 60.1328 -0.970695 50.0569 0.962888 40.3361C2.89647 30.6154 7.66918 21.6862 14.6775 14.678C21.6858 7.66967 30.6149 2.89697 40.3356 0.963384C50.0564 -0.970199 60.1323 0.0221858 69.289 3.81504C78.4458 7.6079 86.2722 14.0309 91.7786 22.2718C97.285 30.5126 100.224 40.2013 100.224 50.1125C100.209 63.3984 94.9244 76.1358 85.5299 85.5304C76.1353 94.9249 63.3979 100.209 50.112 100.224ZM50.112 4.7715C41.1446 4.7715 32.3786 7.43064 24.9224 12.4127C17.4663 17.3947 11.655 24.4758 8.2233 32.7606C4.79162 41.0454 3.89374 50.1618 5.64319 58.9569C7.39265 67.752 11.7109 75.8308 18.0518 82.1717C24.3927 88.5126 32.4715 92.8308 41.2666 94.5803C50.0617 96.3298 59.1781 95.4319 67.4629 92.0002C75.7477 88.5685 82.8288 82.7572 87.8108 75.301C92.7929 67.8449 95.452 59.0789 95.452 50.1115C95.4382 38.0908 90.6569 26.5664 82.157 18.0665C73.6571 9.56656 62.1327 4.78526 50.112 4.7715Z" fill="black"/>
<path d="M91.608 51.0235H8.615C8.8473 61.7565 13.2306 71.9817 20.8439 79.5506C28.4572 87.1195 38.7078 91.443 49.442 91.6125C49.67 91.6175 49.891 91.6235 50.112 91.6235H50.151C50.351 91.6235 50.551 91.6235 50.751 91.6135C61.4902 91.4511 71.7481 87.1307 79.3674 79.5608C86.9867 71.9909 91.3737 61.7614 91.606 51.0235" fill="black"/>
</g>
<defs>
<clipPath id="clip0_1_28">
<rect width="100" height="100" fill="white"/>
</clipPath>
</defs>
</svg>
