<svg width="52" height="52" viewBox="0 0 52 52" fill="none" xmlns="http://www.w3.org/2000/svg">
<path d="M25.45 4.55127C22.1394 4.68259 19.0008 6.06054 16.6635 8.40883C15.295 9.77876 14.2424 11.4313 13.5795 13.2506C13.0566 14.6916 12.79 16.2129 12.7919 17.7458C12.793 19.7889 13.6053 21.748 15.0501 23.1925C16.4949 24.637 18.4541 25.4488 20.4972 25.4495C21.8105 25.449 23.0698 24.927 23.9984 23.9984C24.927 23.0698 25.449 21.8105 25.4495 20.4972L25.45 4.55127Z" fill="#1AB33C"/>
<path d="M34.2542 13.2724C32.3385 13.2735 30.5016 14.035 29.1471 15.3896C27.7925 16.7442 27.031 18.5811 27.0299 20.4967V24.9696H31.5028C32.3221 24.9706 33.1355 24.8302 33.9071 24.5545C34.9235 24.1941 35.8469 23.6119 36.6102 22.8502C37.2832 22.1811 37.8169 21.3851 38.1802 20.5085C38.5436 19.6318 38.7294 18.6917 38.7271 17.7427C38.7285 16.429 38.5255 15.123 38.1253 13.8717C36.8739 13.4715 35.568 13.2685 34.2542 13.2698" fill="#1AB33C"/>
<path d="M26 52C20.8577 52 15.8309 50.4751 11.5552 47.6182C7.27951 44.7613 3.94702 40.7007 1.97914 35.9498C0.0112654 31.1989 -0.503621 25.9712 0.499594 20.9277C1.50281 15.8842 3.97907 11.2514 7.61523 7.61523C11.2514 3.97907 15.8842 1.50281 20.9277 0.499594C25.9712 -0.503621 31.1989 0.0112654 35.9498 1.97914C40.7007 3.94702 44.7613 7.27951 47.6182 11.5552C50.4751 15.8309 52 20.8577 52 26C51.9922 32.8932 49.2504 39.5019 44.3761 44.3761C39.5019 49.2504 32.8932 51.9922 26 52ZM26 2.47539C21.3474 2.47539 16.7992 3.85505 12.9307 6.43991C9.0622 9.02477 6.04705 12.6987 4.26657 16.9972C2.48609 21.2957 2.02023 26.0256 2.92791 30.5888C3.8356 35.152 6.07605 39.3436 9.36596 42.6335C12.6559 45.9234 16.8475 48.1639 21.4107 49.0716C25.9739 49.9793 30.7038 49.5134 35.0023 47.7329C39.3008 45.9524 42.9747 42.9373 45.5596 39.0688C48.1444 35.2003 49.5241 30.6521 49.5241 25.9995C49.517 19.7627 47.0362 13.7834 42.6262 9.37332C38.2161 4.96324 32.2368 2.48253 26 2.47539Z" fill="black"/>
<path d="M47.5297 26.4727H4.46979C4.59031 32.0413 6.86453 37.3465 10.8146 41.2736C14.7647 45.2006 20.0831 47.4438 25.6524 47.5318C25.7707 47.5344 25.8853 47.5375 26 47.5375H26.0202C26.124 47.5375 26.2278 47.5375 26.3315 47.5323C31.9034 47.448 37.2256 45.2064 41.1788 41.2789C45.132 37.3514 47.4081 32.0439 47.5286 26.4727" fill="black"/>
</svg>
