<svg width="48" height="16" viewBox="0 0 48 16" fill="none" xmlns="http://www.w3.org/2000/svg">
<g clip-path="url(#clip0_1_28)">
<path d="M7.83078 1.40039C6.81213 1.4408 5.8464 1.86478 5.12724 2.58733C4.70615 3.00885 4.38229 3.51731 4.17832 4.07711C4.01742 4.52048 3.9354 4.9886 3.93598 5.46026C3.93632 6.0889 4.18623 6.69168 4.63079 7.13616C5.07535 7.58063 5.67819 7.83041 6.30683 7.83063C6.71091 7.83046 7.0984 7.66986 7.38413 7.38413C7.66985 7.0984 7.83045 6.71092 7.83062 6.30684L7.83078 1.40039Z" fill="#1AB33C"/>
<path d="M10.5398 4.08382C9.95032 4.08416 9.38512 4.31846 8.96833 4.73526C8.55154 5.15205 8.31723 5.71725 8.31689 6.30668V7.68296H9.69317C9.94528 7.68326 10.1955 7.64005 10.433 7.55525C10.7457 7.44435 11.0298 7.2652 11.2647 7.03082C11.4718 6.82495 11.636 6.58005 11.7478 6.3103C11.8596 6.04055 11.9168 5.7513 11.916 5.4593C11.9165 5.05507 11.854 4.65323 11.7308 4.26821C11.3458 4.14508 10.944 4.0826 10.5398 4.08303" fill="#1AB33C"/>
<path d="M8 16C6.41775 16 4.87103 15.5308 3.55544 14.6518C2.23985 13.7727 1.21447 12.5233 0.608967 11.0615C0.00346628 9.59966 -0.15496 7.99113 0.153721 6.43928C0.462403 4.88743 1.22433 3.46197 2.34315 2.34315C3.46197 1.22433 4.88743 0.462403 6.43928 0.153721C7.99113 -0.15496 9.59966 0.00346628 11.0615 0.608967C12.5233 1.21447 13.7727 2.23985 14.6518 3.55544C15.5308 4.87103 16 6.41775 16 8C15.9976 10.121 15.154 12.1544 13.6542 13.6542C12.1544 15.154 10.121 15.9976 8 16ZM8 0.761657C6.56842 0.761657 5.169 1.18617 3.97868 1.98151C2.78837 2.77685 1.86063 3.9073 1.31279 5.22991C0.76495 6.55251 0.62161 8.00787 0.900897 9.41194C1.18018 10.816 1.86955 12.1057 2.88183 13.118C3.89411 14.1303 5.18383 14.8197 6.5879 15.0989C7.99197 15.3782 9.44733 15.2349 10.7699 14.6871C12.0925 14.1392 13.223 13.2115 14.0183 12.0212C14.8137 10.8308 15.2382 9.43142 15.2382 7.99984C15.236 6.08083 14.4727 4.24105 13.1157 2.8841C11.7588 1.52715 9.91901 0.763854 8 0.761657Z" fill="black"/>
<path d="M14.6245 8.14543H1.37532C1.41241 9.85887 2.11217 11.4912 3.32757 12.6996C4.54298 13.9079 6.17941 14.5981 7.89304 14.6252C7.92944 14.626 7.96472 14.6269 8 14.6269H8.00623C8.03815 14.6269 8.07008 14.6269 8.10201 14.6253C9.81644 14.5994 11.454 13.9097 12.6704 12.7012C13.8868 11.4927 14.5871 9.85966 14.6242 8.14543" fill="black"/>
<path d="M26.7593 3.59701V6.25154H25.4475V3.89048C25.4475 3.42741 25.3088 3.15744 24.8148 3.15744C24.3362 3.15744 24.0741 3.41285 24.0741 3.99878V6.25154H22.7623V3.89048C22.7623 3.42741 22.6236 3.15744 22.1297 3.15744C21.651 3.15744 21.3889 3.41285 21.3889 3.99878V6.25154H20.0771V2.00756H21.3889V2.48646C21.5302 2.30235 21.7127 2.15403 21.9218 2.05349C22.1309 1.95295 22.3607 1.903 22.5927 1.90769C22.8535 1.89671 23.1119 1.96063 23.3374 2.09189C23.563 2.22316 23.7462 2.41627 23.8655 2.6484C24.0191 2.41739 24.2281 2.22857 24.4735 2.09918C24.7189 1.96979 24.9928 1.90395 25.2702 1.90769C26.1811 1.90769 26.7598 2.5636 26.7598 3.59701" fill="black"/>
<path d="M28.947 0.749642C28.9483 0.852619 28.9283 0.95476 28.8884 1.04967C28.8484 1.14459 28.7893 1.23023 28.7147 1.30124C28.6401 1.37226 28.5517 1.42711 28.4549 1.46238C28.3581 1.49764 28.2551 1.51255 28.1524 1.50618C28.0501 1.51184 27.9477 1.49658 27.8515 1.46132C27.7553 1.42607 27.6673 1.37157 27.5929 1.30116C27.5185 1.23074 27.4592 1.14589 27.4187 1.05178C27.3782 0.957682 27.3573 0.856307 27.3573 0.753856C27.3573 0.651405 27.3782 0.550029 27.4187 0.455927C27.4592 0.361825 27.5185 0.276973 27.5929 0.206557C27.6673 0.136142 27.7553 0.0816419 27.8515 0.0463895C27.9477 0.0111372 28.0501 -0.00412743 28.1524 0.00152926C28.2545 -0.00501619 28.3569 0.00949676 28.4531 0.0441676C28.5494 0.0788384 28.6376 0.132927 28.7121 0.203077C28.7866 0.273227 28.8459 0.357942 28.8863 0.451963C28.9267 0.545985 28.9473 0.647307 28.947 0.749642ZM27.4962 2.00654H28.808V6.25155H27.4962V2.00654Z" fill="black"/>
<path d="M33.9322 2.00781V6.18999C33.9322 7.44791 33.0911 8.28082 31.7948 8.28082C30.7609 8.28082 29.75 7.77152 29.611 6.59891H30.9612C31.0618 7.0229 31.401 7.11536 31.7558 7.11536C32.3269 7.11536 32.6203 6.84564 32.6203 6.23571V5.71951C32.4758 5.89824 32.292 6.04129 32.0832 6.13758C31.8745 6.23387 31.6464 6.28082 31.4166 6.27479C30.3367 6.27479 29.503 5.36448 29.503 4.09098C29.503 2.81058 30.3517 1.90769 31.4166 1.90769C31.6477 1.90264 31.8769 1.95156 32.0859 2.05056C32.2948 2.14957 32.4778 2.29593 32.6203 2.47803V2.00781H33.9322ZM32.6203 4.09073C32.6129 3.91534 32.5542 3.746 32.4513 3.60374C32.3485 3.46149 32.2061 3.35258 32.0419 3.29056C31.8777 3.22854 31.6988 3.21613 31.5276 3.25489C31.3564 3.29364 31.2004 3.38185 31.0789 3.50855C30.9574 3.63524 30.8758 3.79485 30.8442 3.96753C30.8127 4.14021 30.8326 4.31835 30.9014 4.47983C30.9703 4.64131 31.085 4.77899 31.2315 4.87579C31.3779 4.97258 31.5496 5.02421 31.7251 5.02427C31.8463 5.02567 31.9666 5.00218 32.0783 4.95526C32.1901 4.90833 32.2911 4.83898 32.375 4.75148C32.4589 4.66398 32.524 4.56019 32.5662 4.44654C32.6084 4.33289 32.6268 4.21179 32.6203 4.09073Z" fill="black"/>
<path d="M38.8037 3.59702V6.25155H37.4924V3.89049C37.4924 3.42742 37.3535 3.15745 36.8283 3.15745C36.3193 3.15745 36.0567 3.41286 36.0567 3.99879V6.25181H34.7449V0.310074H36.0567V2.48647C36.201 2.30018 36.3872 2.15065 36.6003 2.05006C36.8134 1.94948 37.0472 1.90069 37.2827 1.9077C38.2237 1.9077 38.8024 2.56361 38.8024 3.59702" fill="black"/>
<path d="M42.9813 5.98133C42.5797 6.22138 42.121 6.34936 41.6531 6.35193C40.8358 6.35193 40.0328 5.87329 40.0328 4.60796V3.24199H39.3089V2.00757H40.034V1.13609L41.3459 0.850281V2.00757H42.7734V3.24225H41.3459V4.53082C41.3459 4.93949 41.554 5.13258 41.8863 5.13258C42.1851 5.10409 42.4784 5.03412 42.7578 4.92467L42.9813 5.98133Z" fill="black"/>
<path d="M47.8515 2.00783L45.1441 8.18046H43.747L44.8504 5.66564L43.2533 2.00783H44.6486L45.5426 4.22254L46.4531 2.00783H47.8515Z" fill="black"/>
<path d="M24.4292 9.72775V13.9092C24.4292 15.1671 23.5878 16 22.2918 16C21.2577 16 20.247 15.4907 20.108 14.3181H21.4582C21.5588 14.7421 21.898 14.8345 22.2528 14.8345C22.8239 14.8345 23.1173 14.5648 23.1173 13.9549V13.4384C22.9728 13.6172 22.789 13.7602 22.5802 13.8565C22.3715 13.9528 22.1434 13.9997 21.9136 13.9937C20.8337 13.9937 20 13.0834 20 11.8099C20 10.5295 20.8487 9.62661 21.9136 9.62661C22.1448 9.62155 22.3739 9.67047 22.5829 9.76948C22.7918 9.86848 22.9748 10.0148 23.1173 10.1969V9.72647L24.4292 9.72775ZM23.1173 11.8112C23.1099 11.6358 23.0512 11.4665 22.9483 11.3242C22.8455 11.1819 22.7031 11.073 22.5389 11.011C22.3747 10.949 22.1959 10.9366 22.0246 10.9753C21.8534 11.0141 21.6974 11.1023 21.5759 11.229C21.4544 11.3557 21.3728 11.5153 21.3412 11.688C21.3097 11.8607 21.3296 12.0388 21.3984 12.2003C21.4673 12.3618 21.582 12.4994 21.7285 12.5962C21.8749 12.693 22.0466 12.7447 22.2221 12.7447C22.3433 12.7461 22.4636 12.7226 22.5753 12.6757C22.6871 12.6288 22.7881 12.5594 22.872 12.4719C22.9559 12.3844 23.021 12.2806 23.0632 12.167C23.1054 12.0533 23.1238 11.9322 23.1173 11.8112Z" fill="black"/>
<path d="M27.9889 9.65114V11.0013C27.9018 10.9907 27.8141 10.9854 27.7263 10.9854C27.1095 10.9854 26.5151 11.1709 26.5151 12.1348V13.9712H25.2033V9.72776H26.5151V10.3844C26.6229 10.1503 26.7978 9.95349 27.0176 9.81893C27.2375 9.68438 27.4923 9.61815 27.7498 9.62866C27.8302 9.62666 27.9106 9.63447 27.9891 9.6519" fill="black"/>
<path d="M32.8053 12.1279H29.7112C29.7727 12.7838 30.189 13.0614 30.6447 13.0614C30.8046 13.0742 30.9643 13.0344 31.0994 12.948C31.2345 12.8615 31.3376 12.7333 31.3931 12.5828H32.7432C32.4505 13.6326 31.5627 14.0724 30.6447 14.0724C30.3529 14.0744 30.0635 14.0189 29.7932 13.9091C29.5228 13.7993 29.2767 13.6373 29.0689 13.4324C28.8612 13.2275 28.6958 12.9836 28.5823 12.7148C28.4687 12.446 28.4093 12.1574 28.4073 11.8656C28.4053 11.5738 28.4607 11.2844 28.5705 11.0141C28.6804 10.7437 28.8423 10.4976 29.0473 10.2898C29.2522 10.0821 29.496 9.91669 29.7649 9.80316C30.0337 9.68963 30.3222 9.63016 30.6141 9.62814C32.0188 9.62814 32.936 10.7313 32.8053 12.1279ZM29.7484 11.333H31.4385C31.4115 11.1342 31.311 10.9527 31.1569 10.8242C31.0027 10.6957 30.8061 10.6296 30.6056 10.6388C30.4033 10.6326 30.2055 10.6993 30.0482 10.8267C29.8909 10.9541 29.7846 11.1338 29.7487 11.333" fill="black"/>
<path d="M37.7922 12.1279H34.6981C34.7597 12.7838 35.176 13.0614 35.6317 13.0614C35.7916 13.0742 35.9512 13.0344 36.0864 12.948C36.2215 12.8615 36.3246 12.7333 36.3801 12.5828H37.7302C37.4375 13.6326 36.5497 14.0724 35.6317 14.0724C35.3399 14.0744 35.0505 14.0189 34.7802 13.9091C34.5098 13.7993 34.2637 13.6373 34.0559 13.4324C33.8482 13.2275 33.6828 12.9836 33.5693 12.7148C33.4557 12.446 33.3963 12.1574 33.3942 11.8656C33.3922 11.5738 33.4477 11.2844 33.5575 11.0141C33.6673 10.7437 33.8293 10.4976 34.0343 10.2898C34.2392 10.0821 34.483 9.91669 34.7518 9.80316C35.0207 9.68963 35.3092 9.63016 35.601 9.62814C37.0058 9.62814 37.923 10.7313 37.7922 12.1279ZM34.7365 11.3336H36.4265C36.3995 11.1347 36.299 10.9532 36.1449 10.8247C35.9907 10.6962 35.7941 10.6301 35.5936 10.6393C35.3913 10.6331 35.1935 10.6998 35.0362 10.8272C34.8789 10.9547 34.7724 11.1343 34.7365 11.3336Z" fill="black"/>
<path d="M42.5019 11.3172V13.9717H41.1901V11.6107C41.1901 11.1476 41.0514 10.8776 40.5183 10.8776C40.0013 10.8776 39.7393 11.1331 39.7393 11.719V13.972H38.4265V9.72776H39.7383V10.2059C39.8824 10.0195 40.0687 9.86986 40.2818 9.76926C40.4948 9.66866 40.7287 9.61996 40.9643 9.62713C41.9205 9.62713 42.4998 10.283 42.4998 11.3164" fill="black"/>
<path d="M43.0446 12.6293H44.3728C44.4269 12.8604 44.597 13.0847 45.2065 13.0847C45.6463 13.0847 45.7852 12.9685 45.7852 12.7912C45.7852 12.6216 45.6539 12.5825 44.9288 12.4288C43.7174 12.1662 43.2237 11.8413 43.2237 11.0937C43.2237 10.1758 43.9562 9.63556 45.1832 9.63556C46.3793 9.63556 46.9655 10.1528 47.0968 10.9624H45.7686C45.7145 10.7619 45.5449 10.623 45.1283 10.623C44.7424 10.623 44.5495 10.7387 44.5495 10.9239C44.5495 11.0705 44.6726 11.0861 45.1822 11.1941C46.4475 11.4717 47.1343 11.7264 47.1343 12.6058C47.1343 13.5858 46.2779 14.0721 45.1899 14.0721C44.0405 14.0721 43.1997 13.5243 43.0444 12.629" fill="black"/>
</g>
<defs>
<clipPath id="clip0_1_28">
<rect width="47.8515" height="16" fill="white"/>
</clipPath>
</defs>
</svg>
