<svg xmlns="http://www.w3.org/2000/svg" width="123" height="52" fill="none">
    <g clip-path="url(#a)">
        <path fill="#1AB33C"
            d="M25.45 4.551c-3.31.132-6.45 1.51-8.787 3.858a13.288 13.288 0 0 0-3.084 4.842 13.13 13.13 0 0 0-.787 4.495 7.708 7.708 0 0 0 7.705 7.704 4.954 4.954 0 0 0 4.953-4.953V4.551Zm8.804 8.721a7.228 7.228 0 0 0-7.224 7.225v4.473h4.473a7.263 7.263 0 0 0 6.677-4.461c.364-.877.55-1.817.547-2.766a12.663 12.663 0 0 0-.602-3.871 12.667 12.667 0 0 0-3.87-.602" />
        <path fill="#000"
            d="M26 52a26 26 0 1 1 26-26 26.03 26.03 0 0 1-26 26Zm0-49.525A23.524 23.524 0 1 0 49.524 26 23.551 23.551 0 0 0 26 2.476Z" />
        <path fill="#000"
            d="M47.53 26.473H4.47a21.528 21.528 0 0 0 21.182 21.059c.119.002.233.006.348.006h.02c.104 0 .208 0 .311-.006a21.528 21.528 0 0 0 21.198-21.06m24.524-10.929v6.304h-3.115V16.24c0-1.1-.33-1.741-1.503-1.741-1.136 0-1.759.606-1.759 1.998v5.35H62.56V16.24c0-1.1-.329-1.741-1.502-1.741-1.137 0-1.76.606-1.76 1.998v5.35h-3.115v-10.08H59.3v1.138a3.513 3.513 0 0 1 2.859-1.374 3.245 3.245 0 0 1 3.022 1.759 3.943 3.943 0 0 1 3.337-1.76c2.163 0 3.538 1.559 3.538 4.013m5.193-6.763a1.777 1.777 0 0 1-1.887 1.797 1.789 1.789 0 1 1 0-3.573 1.774 1.774 0 0 1 1.887 1.776Zm-3.445 2.986h3.115v10.081h-3.115V11.765Zm15.285.002v9.933c0 2.988-1.998 4.966-5.076 4.966-2.456 0-4.857-1.21-5.187-3.995h3.207c.239 1.007 1.044 1.227 1.887 1.227 1.356 0 2.053-.64 2.053-2.09v-1.225a3.556 3.556 0 0 1-2.859 1.319c-2.564 0-4.544-2.162-4.544-5.187 0-3.04 2.015-5.185 4.544-5.185a3.532 3.532 0 0 1 2.86 1.354v-1.117h3.115Zm-3.116 4.947a2.127 2.127 0 1 0-2.126 2.218 2.105 2.105 0 0 0 2.126-2.218Zm14.686-1.172v6.305h-3.115V16.24c0-1.1-.33-1.741-1.577-1.741-1.209 0-1.832.607-1.832 1.998v5.351h-3.116V7.736h3.116v5.17a3.549 3.549 0 0 1 2.911-1.375c2.235 0 3.61 1.558 3.61 4.012m9.925 5.663a6.22 6.22 0 0 1-3.155.88c-1.941 0-3.848-1.137-3.848-4.142V14.7h-1.719v-2.932h1.722v-2.07l3.115-.679v2.749h3.391V14.7h-3.391v3.06c0 .971.495 1.43 1.284 1.43a7.676 7.676 0 0 0 2.07-.494l.531 2.51Zm11.566-9.437-6.43 14.66h-3.318l2.621-5.973-3.793-8.687h3.314l2.123 5.26 2.162-5.26h3.321ZM66.52 30.103v9.931c0 2.988-1.999 4.966-5.077 4.966-2.456 0-4.856-1.21-5.186-3.995h3.206c.24 1.007 1.045 1.227 1.887 1.227 1.357 0 2.054-.64 2.054-2.09v-1.226a3.558 3.558 0 0 1-2.86 1.319c-2.564 0-4.544-2.162-4.544-5.187 0-3.04 2.016-5.185 4.545-5.185a3.532 3.532 0 0 1 2.859 1.355V30.1l3.115.003Zm-3.116 4.948a2.127 2.127 0 1 0-2.127 2.218 2.106 2.106 0 0 0 2.127-2.218Zm11.57-5.129v3.206a5.117 5.117 0 0 0-.624-.038c-1.465 0-2.876.44-2.876 2.73v4.362h-3.116V30.103h3.115v1.56a3.089 3.089 0 0 1 2.933-1.795 2.35 2.35 0 0 1 .568.055m11.438 5.881h-7.348c.146 1.557 1.135 2.217 2.217 2.217a1.746 1.746 0 0 0 1.777-1.137h3.207c-.695 2.493-2.804 3.538-4.984 3.538a5.277 5.277 0 1 1-.073-10.555c3.337 0 5.515 2.62 5.204 5.937Zm-7.26-1.888h4.014a1.908 1.908 0 0 0-1.978-1.649 2.006 2.006 0 0 0-2.035 1.649m19.104 1.888h-7.349c.146 1.557 1.135 2.217 2.217 2.217a1.746 1.746 0 0 0 1.778-1.137h3.206c-.695 2.493-2.804 3.538-4.984 3.538a5.277 5.277 0 1 1-.073-10.555c3.337 0 5.515 2.62 5.205 5.937Zm-7.258-1.887h4.014a1.908 1.908 0 0 0-1.978-1.649 2.005 2.005 0 0 0-2.036 1.65Zm18.443-.039v6.305h-3.116v-5.608c0-1.1-.329-1.74-1.595-1.74-1.228 0-1.85.606-1.85 1.998v5.35h-3.118v-10.08h3.115v1.136a3.551 3.551 0 0 1 2.912-1.375c2.271 0 3.647 1.558 3.647 4.013m1.294 3.118h3.154c.129.549.533 1.081 1.98 1.081 1.045 0 1.375-.276 1.375-.697 0-.403-.312-.495-2.034-.86-2.877-.624-4.05-1.396-4.05-3.171 0-2.18 1.74-3.464 4.654-3.464 2.841 0 4.233 1.229 4.545 3.152h-3.154c-.129-.476-.532-.806-1.521-.806-.917 0-1.375.274-1.375.714 0 .348.293.385 1.503.642 3.005.66 4.636 1.264 4.636 3.353 0 2.327-2.034 3.482-4.618 3.482-2.73 0-4.727-1.3-5.096-3.427" />
    </g>
    <defs>
        <clipPath id="a">
            <path fill="#fff" d="M0 0h122.147v52H0z" />
        </clipPath>
    </defs>
</svg>